<svg width="18" height="19" viewBox="0 0 18 19" fill="none" xmlns="http://www.w3.org/2000/svg">
<path d="M17.9597 9.71048C17.9597 14.8456 14.4431 18.5 9.25 18.5C4.27097 18.5 0.25 14.479 0.25 9.5C0.25 4.52097 4.27097 0.5 9.25 0.5C11.6742 0.5 13.7137 1.38911 15.2851 2.85524L12.8355 5.21048C9.63105 2.11855 3.67218 4.44113 3.67218 9.5C3.67218 12.6391 6.17984 15.1831 9.25 15.1831C12.8137 15.1831 14.1492 12.6282 14.3597 11.3036H9.25V8.20806H17.8181C17.9016 8.66895 17.9597 9.11169 17.9597 9.71048Z" fill="url(#paint0_linear_519_3261)"/>
<defs>
<linearGradient id="paint0_linear_519_3261" x1="0.25" y1="18.5" x2="17.9597" y2="18.5" gradientUnits="userSpaceOnUse">
<stop stop-color="#C2FDFF"/>
<stop offset="1" stop-color="#C2FFCC"/>
</linearGradient>
</defs>
</svg>
